<svg width="24.000000" height="24.000000" viewBox="0 0 24 24" fill="none" xmlns="http://www.w3.org/2000/svg" xmlns:xlink="http://www.w3.org/1999/xlink">
	<desc>
			Created with Pixso.
	</desc>
	<defs/>
	<rect width="24.000000" height="24.000000" fill="#FFFFFF" fill-opacity="0"/>
	<path d="M21 19.9199C21.0023 20.4834 20.767 21.0215 20.3521 21.4023C19.9371 21.7822 19.3809 21.9707 18.82 21.9199C15.7428 21.5859 12.787 20.5342 10.19 18.8496C7.77383 17.3145 5.72534 15.2666 4.19 12.8506C2.49997 10.2412 1.44824 7.27148 1.12 4.17969C1.06949 3.62109 1.25629 3.06641 1.63477 2.65137C2.01328 2.2373 2.54858 2.00098 3.11002 2L6.11002 2C7.11386 1.99023 7.96951 2.72559 8.11002 3.71973C8.23663 4.67969 8.47144 5.62305 8.81 6.53027C9.08475 7.26074 8.90903 8.08496 8.36002 8.63965L7.09 9.91016C8.51355 12.4141 10.5865 14.4863 13.09 15.9102L14.36 14.6396C14.9152 14.0908 15.7391 13.915 16.47 14.1904C17.3773 14.5283 18.3199 14.7637 19.28 14.8896C20.2856 15.0322 21.0252 15.9053 21 16.9199L21 19.9199Z" stroke="#31405B" stroke-opacity="1.000000" stroke-width="2.000000" stroke-linejoin="round"/>
</svg>
